<mxfile host="app.diagrams.net" modified="2025-03-12T09:49:54.255Z" agent="5.0 (Macintosh)" etag="kCR7jG159kjJ0F3RrQif" version="21.0.6" type="github">
  <diagram name="Page-1" id="LV6u2GoyfH_cWMS7qSA4">
    <mxGraphModel dx="1253" dy="703" grid="1" gridSize="10" guides="1" tooltips="1" connect="1" arrows="1" fold="1" page="1" pageScale="1" pageWidth="827" pageHeight="1169" math="0" shadow="0">
      <root>
        <mxCell id="0" />
        <mxCell id="1" parent="0" />
        <mxCell id="476Phh2_DoRy5IiEpwfO-1" value="&lt;br style=&quot;font-size: 11px;&quot;&gt;" style="shape=umlActor;verticalLabelPosition=bottom;verticalAlign=top;html=1;outlineConnect=0;fontSize=11;" parent="1" vertex="1">
          <mxGeometry x="195" y="160" width="30" height="60" as="geometry" />
        </mxCell>
        <mxCell id="476Phh2_DoRy5IiEpwfO-2" value="" style="rounded=0;whiteSpace=wrap;html=1;" parent="1" vertex="1">
          <mxGeometry x="90" y="240" width="150" height="170" as="geometry" />
        </mxCell>
        <mxCell id="476Phh2_DoRy5IiEpwfO-3" value="" style="rounded=0;whiteSpace=wrap;html=1;" parent="1" vertex="1">
          <mxGeometry x="80" y="250" width="150" height="170" as="geometry" />
        </mxCell>
        <mxCell id="476Phh2_DoRy5IiEpwfO-4" value="" style="rounded=0;whiteSpace=wrap;html=1;" parent="1" vertex="1">
          <mxGeometry x="68" y="260" width="150" height="170" as="geometry" />
        </mxCell>
        <mxCell id="476Phh2_DoRy5IiEpwfO-6" value="Data Format" style="rounded=1;whiteSpace=wrap;html=1;arcSize=22;fontSize=12;fillColor=#ffe6cc;strokeColor=#d79b00;" parent="1" vertex="1">
          <mxGeometry x="95" y="283" width="100" height="45" as="geometry" />
        </mxCell>
        <mxCell id="476Phh2_DoRy5IiEpwfO-7" value="Data" style="rounded=1;whiteSpace=wrap;html=1;arcSize=22;fontSize=12;fillColor=#fff2cc;strokeColor=#d6b656;" parent="1" vertex="1">
          <mxGeometry x="95" y="363" width="100" height="45" as="geometry" />
        </mxCell>
        <mxCell id="476Phh2_DoRy5IiEpwfO-8" value="" style="endArrow=block;html=1;rounded=0;exitX=0.5;exitY=0;exitDx=0;exitDy=0;entryX=0.5;entryY=1;entryDx=0;entryDy=0;endFill=0;" parent="1" source="476Phh2_DoRy5IiEpwfO-7" target="476Phh2_DoRy5IiEpwfO-6" edge="1">
          <mxGeometry width="50" height="50" relative="1" as="geometry">
            <mxPoint x="320" y="310" as="sourcePoint" />
            <mxPoint x="370" y="260" as="targetPoint" />
          </mxGeometry>
        </mxCell>
        <mxCell id="476Phh2_DoRy5IiEpwfO-10" value="conforms to" style="text;html=1;strokeColor=none;fillColor=none;align=center;verticalAlign=middle;whiteSpace=wrap;rounded=0;fontSize=11;" parent="1" vertex="1">
          <mxGeometry x="150" y="330" width="60" height="30" as="geometry" />
        </mxCell>
        <mxCell id="476Phh2_DoRy5IiEpwfO-27" style="edgeStyle=orthogonalEdgeStyle;rounded=0;orthogonalLoop=1;jettySize=auto;html=1;exitX=0.5;exitY=0;exitDx=0;exitDy=0;curved=1;startArrow=classic;startFill=1;endArrow=none;endFill=0;" parent="1" source="476Phh2_DoRy5IiEpwfO-11" edge="1">
          <mxGeometry relative="1" as="geometry">
            <mxPoint x="240" y="190" as="targetPoint" />
            <Array as="points">
              <mxPoint x="370" y="190" />
            </Array>
          </mxGeometry>
        </mxCell>
        <mxCell id="476Phh2_DoRy5IiEpwfO-11" value="Federation" style="rounded=0;whiteSpace=wrap;html=1;fillColor=#f8cecc;strokeColor=#b85450;" parent="1" vertex="1">
          <mxGeometry x="310" y="230" width="120" height="50" as="geometry" />
        </mxCell>
        <mxCell id="476Phh2_DoRy5IiEpwfO-12" value="Security expert" style="text;html=1;strokeColor=none;fillColor=none;align=center;verticalAlign=middle;whiteSpace=wrap;rounded=0;fontSize=12;" parent="1" vertex="1">
          <mxGeometry x="135" y="175" width="60" height="30" as="geometry" />
        </mxCell>
        <mxCell id="476Phh2_DoRy5IiEpwfO-13" value="Federation&lt;br&gt;instance" style="rounded=0;whiteSpace=wrap;html=1;fillColor=#e1d5e7;strokeColor=#9673a6;" parent="1" vertex="1">
          <mxGeometry x="310" y="380" width="120" height="50" as="geometry" />
        </mxCell>
        <mxCell id="476Phh2_DoRy5IiEpwfO-14" value="" style="endArrow=block;html=1;rounded=0;exitX=0.5;exitY=0;exitDx=0;exitDy=0;entryX=0.5;entryY=1;entryDx=0;entryDy=0;endFill=0;" parent="1" source="476Phh2_DoRy5IiEpwfO-13" target="476Phh2_DoRy5IiEpwfO-11" edge="1">
          <mxGeometry width="50" height="50" relative="1" as="geometry">
            <mxPoint x="365" y="350" as="sourcePoint" />
            <mxPoint x="365" y="320" as="targetPoint" />
          </mxGeometry>
        </mxCell>
        <mxCell id="476Phh2_DoRy5IiEpwfO-15" value="conforms to" style="text;html=1;strokeColor=none;fillColor=none;align=center;verticalAlign=middle;whiteSpace=wrap;rounded=0;fontSize=11;" parent="1" vertex="1">
          <mxGeometry x="374" y="320" width="60" height="30" as="geometry" />
        </mxCell>
        <mxCell id="476Phh2_DoRy5IiEpwfO-17" value="" style="sketch=0;outlineConnect=0;fontColor=#232F3E;gradientColor=none;fillColor=#232F3D;strokeColor=none;dashed=0;verticalLabelPosition=bottom;verticalAlign=top;align=center;html=1;fontSize=12;fontStyle=0;aspect=fixed;pointerEvents=1;shape=mxgraph.aws4.gear;" parent="1" vertex="1">
          <mxGeometry x="490" y="300" width="60" height="60" as="geometry" />
        </mxCell>
        <mxCell id="476Phh2_DoRy5IiEpwfO-18" value="Contextual &lt;br&gt;ontology" style="rounded=0;whiteSpace=wrap;html=1;fillColor=#d5e8d4;strokeColor=#82b366;" parent="1" vertex="1">
          <mxGeometry x="610" y="305" width="120" height="50" as="geometry" />
        </mxCell>
        <mxCell id="476Phh2_DoRy5IiEpwfO-23" value="Context definition" style="rounded=0;whiteSpace=wrap;html=1;fillColor=#dae8fc;strokeColor=#6c8ebf;" parent="1" vertex="1">
          <mxGeometry x="460" y="150" width="120" height="50" as="geometry" />
        </mxCell>
        <mxCell id="476Phh2_DoRy5IiEpwfO-24" value="&lt;br style=&quot;font-size: 11px;&quot;&gt;" style="shape=umlActor;verticalLabelPosition=bottom;verticalAlign=top;html=1;outlineConnect=0;fontSize=11;" parent="1" vertex="1">
          <mxGeometry x="650" y="197" width="30" height="60" as="geometry" />
        </mxCell>
        <mxCell id="476Phh2_DoRy5IiEpwfO-25" value="Security engineer" style="text;html=1;strokeColor=none;fillColor=none;align=center;verticalAlign=middle;whiteSpace=wrap;rounded=0;fontSize=12;" parent="1" vertex="1">
          <mxGeometry x="680" y="210" width="60" height="30" as="geometry" />
        </mxCell>
        <mxCell id="476Phh2_DoRy5IiEpwfO-28" value="&lt;font style=&quot;font-size: 11px;&quot;&gt;defines business entities and build federation&lt;/font&gt;" style="text;html=1;strokeColor=none;fillColor=none;align=center;verticalAlign=middle;whiteSpace=wrap;rounded=0;fontSize=12;fontStyle=2" parent="1" vertex="1">
          <mxGeometry x="259" y="155" width="150" height="30" as="geometry" />
        </mxCell>
        <mxCell id="476Phh2_DoRy5IiEpwfO-31" value="" style="shape=flexArrow;endArrow=classic;html=1;rounded=0;endWidth=8;endSize=2.526666666666667;width=4;fillColor=default;" parent="1" edge="1">
          <mxGeometry width="50" height="50" relative="1" as="geometry">
            <mxPoint x="555" y="330" as="sourcePoint" />
            <mxPoint x="605" y="330" as="targetPoint" />
          </mxGeometry>
        </mxCell>
        <mxCell id="476Phh2_DoRy5IiEpwfO-33" value="" style="shape=flexArrow;endArrow=classic;html=1;rounded=0;endWidth=8;endSize=2.526666666666667;width=4;entryX=-0.031;entryY=0.66;entryDx=0;entryDy=0;entryPerimeter=0;fillColor=default;exitX=1;exitY=0.5;exitDx=0;exitDy=0;" parent="1" edge="1">
          <mxGeometry width="50" height="50" relative="1" as="geometry">
            <mxPoint x="197" y="303.5" as="sourcePoint" />
            <mxPoint x="308.28" y="261" as="targetPoint" />
          </mxGeometry>
        </mxCell>
        <mxCell id="476Phh2_DoRy5IiEpwfO-34" value="" style="shape=flexArrow;endArrow=classic;html=1;rounded=0;endWidth=8;endSize=2.526666666666667;width=4;entryX=-0.019;entryY=0.593;entryDx=0;entryDy=0;entryPerimeter=0;fillColor=default;exitX=1;exitY=0.5;exitDx=0;exitDy=0;" parent="1" edge="1">
          <mxGeometry width="50" height="50" relative="1" as="geometry">
            <mxPoint x="196" y="383.5" as="sourcePoint" />
            <mxPoint x="308.72" y="407.65" as="targetPoint" />
          </mxGeometry>
        </mxCell>
        <mxCell id="476Phh2_DoRy5IiEpwfO-35" value="" style="shape=flexArrow;endArrow=classic;html=1;rounded=0;endWidth=8;endSize=2.526666666666667;width=4;fillColor=default;exitX=1;exitY=0.5;exitDx=0;exitDy=0;" parent="1" edge="1">
          <mxGeometry width="50" height="50" relative="1" as="geometry">
            <mxPoint x="433" y="255" as="sourcePoint" />
            <mxPoint x="493" y="305" as="targetPoint" />
          </mxGeometry>
        </mxCell>
        <mxCell id="476Phh2_DoRy5IiEpwfO-36" value="" style="shape=flexArrow;endArrow=classic;html=1;rounded=0;endWidth=8;endSize=2.526666666666667;width=4;fillColor=default;exitX=1;exitY=0.5;exitDx=0;exitDy=0;" parent="1" edge="1">
          <mxGeometry width="50" height="50" relative="1" as="geometry">
            <mxPoint x="433" y="405" as="sourcePoint" />
            <mxPoint x="493" y="355" as="targetPoint" />
          </mxGeometry>
        </mxCell>
        <mxCell id="476Phh2_DoRy5IiEpwfO-37" value="" style="shape=flexArrow;endArrow=classic;html=1;rounded=0;endWidth=8;endSize=2.526666666666667;width=4;fillColor=default;exitX=1;exitY=0.5;exitDx=0;exitDy=0;" parent="1" edge="1">
          <mxGeometry width="50" height="50" relative="1" as="geometry">
            <mxPoint x="520" y="203" as="sourcePoint" />
            <mxPoint x="520" y="298.00068163228207" as="targetPoint" />
          </mxGeometry>
        </mxCell>
        <mxCell id="476Phh2_DoRy5IiEpwfO-38" style="edgeStyle=orthogonalEdgeStyle;rounded=0;orthogonalLoop=1;jettySize=auto;html=1;exitX=1;exitY=0.5;exitDx=0;exitDy=0;curved=1;startArrow=classic;startFill=1;endArrow=none;endFill=0;" parent="1" edge="1">
          <mxGeometry relative="1" as="geometry">
            <mxPoint x="584" y="170" as="sourcePoint" />
            <mxPoint x="664" y="190" as="targetPoint" />
          </mxGeometry>
        </mxCell>
        <mxCell id="476Phh2_DoRy5IiEpwfO-39" value="&lt;font style=&quot;font-size: 11px;&quot;&gt;defines context&lt;/font&gt;" style="text;html=1;strokeColor=none;fillColor=none;align=center;verticalAlign=middle;whiteSpace=wrap;rounded=0;fontSize=12;fontStyle=2" parent="1" vertex="1">
          <mxGeometry x="620" y="145" width="100" height="30" as="geometry" />
        </mxCell>
        <mxCell id="476Phh2_DoRy5IiEpwfO-40" style="edgeStyle=orthogonalEdgeStyle;rounded=0;orthogonalLoop=1;jettySize=auto;html=1;exitX=0.458;exitY=0.013;exitDx=0;exitDy=0;curved=1;startArrow=classic;startFill=1;endArrow=none;endFill=0;exitPerimeter=0;" parent="1" source="476Phh2_DoRy5IiEpwfO-18" edge="1">
          <mxGeometry relative="1" as="geometry">
            <mxPoint x="590" y="180" as="sourcePoint" />
            <mxPoint x="665" y="260" as="targetPoint" />
          </mxGeometry>
        </mxCell>
        <mxCell id="476Phh2_DoRy5IiEpwfO-41" value="uses" style="text;html=1;strokeColor=none;fillColor=none;align=center;verticalAlign=middle;whiteSpace=wrap;rounded=0;fontSize=11;fontStyle=2" parent="1" vertex="1">
          <mxGeometry x="664" y="260" width="40" height="30" as="geometry" />
        </mxCell>
        <mxCell id="476Phh2_DoRy5IiEpwfO-42" value="" style="endArrow=none;dashed=1;html=1;dashPattern=1 3;strokeWidth=2;rounded=0;" parent="1" edge="1">
          <mxGeometry width="50" height="50" relative="1" as="geometry">
            <mxPoint x="448" y="470" as="sourcePoint" />
            <mxPoint x="448" y="140" as="targetPoint" />
          </mxGeometry>
        </mxCell>
        <mxCell id="476Phh2_DoRy5IiEpwfO-43" value="Federation framework" style="text;html=1;strokeColor=none;fillColor=none;align=center;verticalAlign=middle;whiteSpace=wrap;rounded=0;fontSize=12;" parent="1" vertex="1">
          <mxGeometry x="218" y="446" width="150" height="30" as="geometry" />
        </mxCell>
        <mxCell id="476Phh2_DoRy5IiEpwfO-44" value="Future work" style="text;html=1;strokeColor=none;fillColor=none;align=center;verticalAlign=middle;whiteSpace=wrap;rounded=0;fontSize=12;" parent="1" vertex="1">
          <mxGeometry x="532" y="446" width="150" height="30" as="geometry" />
        </mxCell>
      </root>
    </mxGraphModel>
  </diagram>
</mxfile>
